Coordinates
version=1
nRows=17
nColumns=40
inDegrees=yes

Units are S.I. units (second, meters, Newtons, ...)
Angles are in degrees.

endheader
time	pelvis_tilt	pelvis_list	pelvis_rotation	pelvis_tx	pelvis_ty	pelvis_tz	hip_flexion_r	hip_adduction_r	hip_rotation_r	knee_angle_r	knee_angle_r_beta	ankle_angle_r	subtalar_angle_r	mtp_angle_r	hip_flexion_l	hip_adduction_l	hip_rotation_l	knee_angle_l	knee_angle_l_beta	ankle_angle_l	subtalar_angle_l	mtp_angle_l	lumbar_extension	lumbar_bending	lumbar_rotation	arm_flex_r	arm_add_r	arm_rot_r	elbow_flex_r	pro_sup_r	wrist_flex_r	wrist_dev_r	arm_flex_l	arm_add_l	arm_rot_l	elbow_flex_l	pro_sup_l	wrist_flex_l	wrist_dev_l
      0.65000000	     -2.55943670	      2.31658928	     -7.19827195	     -0.54758788	      0.95632170	     -0.90335059	      1.20668887	     -1.65886044	    -21.83146456	    -14.66245286	     -0.25590808	      8.59035546	      2.42451500	    -10.42620773	     23.64024245	      5.39725048	     19.38543232	     -8.66230391	     -0.15118572	     -4.73837114	     -3.08332665	      8.23956422	     -5.38475208	     -1.19676478	      4.64225857	     15.32173481	    -13.06785276	     -6.77120668	     24.05896471	     89.95437384	      0.00000000	      0.00000000	     -2.20015141	     11.30711095	     13.47527571	     17.58780378	     89.95437384	      0.00000000	      0.00000000
      0.66000000	     -2.46612299	      2.26438850	     -7.21869394	     -0.54114280	      0.95580482	     -0.90336380	      0.73832594	     -1.68065541	    -21.74887459	    -14.81551075	     -0.25857944	      8.79497755	      2.31934448	    -10.55263428	     23.85028412	      5.37772024	     19.84410737	     -8.19258119	     -0.14298752	     -5.39146990	     -3.15554279	      8.21715816	     -5.48424531	     -1.20692156	      4.75477749	     15.25488542	    -12.97664853	     -7.04580070	     24.59238894	     89.95437384	      0.00000000	      0.00000000	     -2.53303609	     11.44847661	     13.49971429	     17.34832076	     89.95437384	      0.00000000	      0.00000000
      0.67000000	     -2.50579703	      2.17154920	     -7.22703468	     -0.53468007	      0.95495868	     -0.90337330	      0.43115450	     -1.65851588	    -21.74423007	    -15.02057699	     -0.26215852	      8.83162913	      2.22109261	    -10.48503954	     24.29097536	      5.44191585	     20.00392329	     -8.14601957	     -0.14217486	     -5.34710044	     -2.99406505	      8.13262810	     -5.40886939	     -1.16788526	      4.76318825	     15.25383191	    -12.84451376	     -7.08140029	     24.90891664	     89.95437384	      0.00000000	      0.00000000	     -3.01136932	     11.61938896	     13.48832296	     17.19348479	     89.95437384	      0.00000000	      0.00000000
      0.68000000	     -2.24006546	      2.07919516	     -7.23013393	     -0.52777796	      0.95465789	     -0.90373386	     -0.27452206	     -1.68840216	    -21.75176587	    -15.17703228	     -0.26488918	      9.19084795	      2.15649272	    -10.68321553	     24.27314720	      5.42971964	     20.62834343	     -7.99652780	     -0.13956574	     -5.77544195	     -2.75018650	      8.03993018	     -5.66476557	     -1.14988343	      4.94624521	     14.96580598	    -12.78340340	     -7.57979359	     25.56878944	     89.95437384	      0.00000000	      0.00000000	     -3.24113861	     11.71568711	     13.50772211	     16.83465085	     89.95437384	      0.00000000	      0.00000000
      0.69000000	     -2.27663104	      2.00122871	     -7.22583051	     -0.52113901	      0.95378716	     -0.90395345	     -0.57467846	     -1.70343286	    -21.72522251	    -15.42929864	     -0.26929206	      9.21109588	      2.05175517	    -10.59218966	     24.65593682	      5.47169004	     20.71202399	     -8.15317721	     -0.14229979	     -5.74164632	     -2.52930226	      7.93984787	     -5.59771178	     -1.13069906	      4.98723078	     14.91183383	    -12.67237500	     -7.58195266	     25.83827984	     89.95437384	      0.00000000	      0.00000000	     -3.70379566	     11.88858050	     13.49341204	     16.75681946	     89.95437384	      0.00000000	      0.00000000
      0.70000000	     -2.13662542	      1.84454813	     -7.11969786	     -0.51429494	      0.95323211	     -0.90466977	     -1.18711528	     -1.66384214	    -21.91398076	    -15.50614370	     -0.27063326	      9.60102747	      1.94474942	    -10.62308445	     24.89474825	      5.54626930	     21.20072750	     -8.52042613	     -0.14870949	     -5.88556086	     -1.92309065	      7.87332005	     -5.75364556	     -1.00894146	      5.02211759	     14.66952110	    -12.66047882	     -7.77136529	     26.36118080	     89.95437384	      0.00000000	      0.00000000	     -3.98908584	     11.97644308	     13.51850641	     16.48663673	     89.95437384	      0.00000000	      0.00000000
      0.71000000	     -1.87311334	      1.73326686	     -7.06983070	     -0.50718326	      0.95279164	     -0.90518660	     -1.98417136	     -1.69153096	    -22.00948210	    -15.53017679	     -0.27105272	      9.76268949	      2.09751835	    -10.67865997	     24.98271560	      5.60235311	     21.45557733	     -9.08559822	     -0.15857360	     -5.89082507	     -1.25460088	      7.72293350	     -6.01206178	     -0.98687854	      5.09943933	     14.39240245	    -12.56656620	     -8.03313167	     26.85838955	     89.95437384	      0.00000000	      0.00000000	     -4.26409224	     12.10296532	     13.65136479	     16.22236438	     89.95437384	      0.00000000	      0.00000000
      0.72000000	     -1.73066047	      1.63019469	     -7.00458721	     -0.50000180	      0.95218233	     -0.90590190	     -2.62003891	     -1.74121660	    -22.20793400	    -15.58779084	     -0.27205827	      9.87625923	      2.27343374	    -10.71588372	     25.13349062	      5.63941958	     21.64225033	     -9.62489232	     -0.16798606	     -5.90704271	     -0.67802612	      7.57124329	     -6.13454365	     -0.94766669	      5.17063945	     14.10562480	    -12.50678087	     -8.16811618	     27.23469160	     89.95437384	      0.00000000	      0.00000000	     -4.59899182	     12.20726999	     13.79944361	     16.05842633	     89.95437384	      0.00000000	      0.00000000
      0.73000000	     -1.80215293	      1.58761182	     -7.00977688	     -0.49291336	      0.95113665	     -0.90672760	     -2.87661091	     -1.86399871	    -22.03509995	    -15.95248328	     -0.27842336	      9.75554539	      2.18818806	    -10.56315876	     25.38295734	      5.61641241	     21.46315057	    -10.00301975	     -0.17458563	     -5.88651418	     -0.53459299	      7.44973826	     -5.98581163	     -0.94858208	      5.24232051	     13.84086235	    -12.44341627	     -8.15163592	     27.46161847	     89.95437384	      0.00000000	      0.00000000	     -5.12509149	     12.32584875	     13.79954547	     16.09113674	     89.95437384	      0.00000000	      0.00000000
      0.74000000	     -1.68384829	      1.47662556	     -6.89755749	     -0.48527968	      0.95044878	     -0.90769448	     -3.62848468	     -1.88815007	    -22.45752651	    -15.79704230	     -0.27571040	     10.17648810	      2.17990443	    -10.61669404	     25.45955254	      5.64932175	     21.91076719	    -10.60094173	     -0.18502134	     -5.76080697	      0.18027104	      7.36025165	     -6.01462027	     -0.88336839	      5.30749098	     13.53203403	    -12.39845040	     -8.21959801	     27.57308808	     89.95437384	      0.00000000	      0.00000000	     -5.38812289	     12.41906230	     13.90021309	     15.72119094	     89.95437384	      0.00000000	      0.00000000
      0.75000000	     -1.53235167	      1.37510896	     -6.81726293	     -0.47754332	      0.94975569	     -0.90872987	     -4.39724115	     -1.94150778	    -22.74385034	    -15.68281517	     -0.27371676	     10.32960981	      2.36450023	    -10.61678019	     25.48589469	      5.67874309	     22.12169603	    -11.32420127	     -0.19764460	     -5.49130017	      0.83313262	      7.22482902	     -6.08439732	     -0.83838503	      5.38988085	     13.13126754	    -12.35890889	     -8.30981359	     27.80090014	     89.95437384	      0.00000000	      0.00000000	     -5.69776201	     12.50912497	     14.05588425	     15.51191178	     89.95437384	      0.00000000	      0.00000000
      0.76000000	     -1.06448320	      1.41278744	     -6.60458893	     -0.46945597	      0.94950780	     -0.91023415	     -5.47091060	     -2.39703278	    -23.79957679	    -15.80516087	     -0.27585210	     10.25802706	      4.47449410	    -11.67167856	     25.07302176	      5.36712509	     21.81577480	    -11.96601106	     -0.20884629	     -5.05359185	      1.83659798	      6.65319325	     -6.51719469	     -0.97370448	      5.20433310	     12.80514375	    -12.28222062	     -8.28253637	     28.03933029	     89.95437384	      0.00000000	      0.00000000	     -5.96089932	     12.49894453	     15.20548565	     15.23676635	     89.95437384	      0.00000000	      0.00000000
      0.77000000	     -1.05517296	      1.37956750	     -6.54665373	     -0.46150262	      0.94854658	     -0.91152458	     -5.98912949	     -2.53011571	    -23.91096857	    -15.91492771	     -0.27776789	     10.36481652	      4.36022688	    -11.64137095	     25.09122098	      5.31185844	     21.91221456	    -12.54948225	     -0.21902978	     -4.95552845	      2.22473807	      6.53558003	     -6.38531961	     -0.97765522	      5.31397995	     12.42100830	    -12.25194730	     -8.29911314	     27.97413589	     89.95437384	      0.00000000	      0.00000000	     -6.32755246	     12.58203574	     15.21376371	     15.06467353	     89.95437384	      0.00000000	      0.00000000
      0.78000000	     -1.08477385	      1.33339900	     -6.54445341	     -0.45340856	      0.94756959	     -0.91282133	     -6.47619548	     -2.66112587	    -24.05647508	    -15.96471589	     -0.27863686	     10.40548102	      4.30719110	    -11.58735179	     25.03524639	      5.27295461	     21.95547854	    -13.00679844	     -0.22701146	     -4.80785327	      2.50778377	      6.42955841	     -6.18836997	     -0.97273441	      5.46069724	     12.02497697	    -12.20118980	     -8.32961657	     27.86811880	     89.95437384	      0.00000000	      0.00000000	     -6.73483612	     12.66619590	     15.25911102	     14.92767705	     89.95437384	      0.00000000	      0.00000000
      0.79000000	     -1.03582717	      1.30746049	     -6.50790670	     -0.44500018	      0.94667937	     -0.91428946	     -7.09609630	     -2.83827445	    -24.20792252	    -15.99914189	     -0.27923770	     10.40127947	      4.39784740	    -11.54846302	     24.87987769	      5.18962320	     22.09098047	    -13.57115108	     -0.23686127	     -4.50716115	      2.88559318	      6.29612608	     -6.04873413	     -0.98555204	      5.57694746	     11.60034271	    -12.14402347	     -8.40156233	     27.64678558	     89.95437384	      0.00000000	      0.00000000	     -7.10972428	     12.74575322	     15.36118275	     14.76759062	     89.95437384	      0.00000000	      0.00000000
      0.80000000	     -0.63518204	      1.37411584	     -6.45401941	     -0.43618107	      0.94633322	     -0.91595336	     -8.13875309	     -3.24618733	    -24.68965777	    -16.01033222	     -0.27943301	     10.17706178	      5.53536511	    -11.81151348	     24.22570380	      4.90422644	     22.01666931	    -14.07165244	     -0.24559667	     -3.84174125	      3.38984222	      5.97778329	     -6.31999362	     -1.14267412	      5.59792860	     11.18077974	    -11.97929804	     -8.84558028	     27.59706081	     89.95437384	      0.00000000	      0.00000000	     -7.46013290	     12.76383712	     16.02842093	     14.67484252	     89.95437384	      0.00000000	      0.00000000
      0.81000000	     -0.79509674	      1.33001549	     -6.43236314	     -0.42772554	      0.94507282	     -0.91764801	     -8.36122778	     -3.41730041	    -24.46285459	    -16.40518334	     -0.28632446	     10.02294796	      5.36201041	    -11.64230989	     24.15292773	      4.83142542	     21.78962298	    -14.45625765	     -0.25230929	     -3.84591950	      3.41001427	      5.88336718	     -5.96288555	     -1.10744681	      5.71084412	     10.61347354	    -11.98783942	     -8.80999243	     27.51023170	     89.95437384	      0.00000000	      0.00000000	     -7.97748394	     12.80298961	     16.04239615	     14.72768498	     89.95437384	      0.00000000	      0.00000000
